# xmcd
#
# Track frame offsets:
# 150
# 16020
# 31045
# 51597
# 71724
# 92151
# 111867
# 128818
# 147245
# 168540
# 188142
# 208857
#
# Disc length: 3053 seconds
#
#
# Revision: 1
# Processed by: cddbd v1.5.1PL0 Copyright (c) Steve Scherf et al.
# Submitted via: FreeRIP 2.70 
#
DISCID=ab0beb0c
DTITLE=Ilse DeLange - Clean Up
DYEAR=2003
DGENRE=Country
TTITLE0=All Alone
TTITLE1=Thank You
TTITLE2=Déjà Vu
TTITLE3=New Beginning
TTITLE4=Heavenless
TTITLE5=Follow
TTITLE6=Clean Up
TTITLE7=Machine People
TTITLE8=Not Waiting For You
TTITLE9=No Reason to Be Shy
TTITLE10=Nobody Really Knows
TTITLE11=Here I Am
EXTD=This album contains a bonus-DVD with contents:\nThe Making Of Clean Up - Before You Let Me Go: Kane Featuring Ilse DeLange Live In Rotterdam - Photo Gallery\n\nRemark:\nExtra Downloadable 13th track with unique CD-accesscode
EXTT0=
EXTT1=
EXTT2=
EXTT3=
EXTT4=
EXTT5=
EXTT6=
EXTT7=
EXTT8=
EXTT9=
EXTT10=
EXTT11=
PLAYORDER=
